PathFileType	4	(X/Y/Z)	..\data\2015007\dynamic\2015007_C5_03.trc
DataRate	CameraRate	NumFrames	NumMarkers	Units	OrigDataRate	OrigDataStartFrame	OrigNumFrames
100.000000	100.000000	4	52	mm	100.000000	69	139
Frame#	Time	L_IAS			L_IPS			R_IPS			R_IAS			L_FTC			L_FLE			L_FME			L_FAX			L_TTC			L_FAL			L_TAM			L_FCC			L_FM1			L_FM2			L_FM5			R_FTC			R_FLE			R_FME			R_FAX			R_TTC			R_FAL			R_TAM			R_FCC			R_FM1			R_FM2			R_FM5			CV7			TV10			SXS			SJN			L_SIA			L_SRS			L_SAA			L_SAE			L_HLE			L_HME			L_UOA			L_RSP			L_UHE			L_HM2			L_HM5			R_SIA			R_SRS			R_SAA			R_SAE			R_HLE			R_HME			R_UOA			R_RSP			R_UHE			R_HM2			R_HM5			
		X1	Y1	Z1	X2	Y2	Z2	X3	Y3	Z3	X4	Y4	Z4	X5	Y5	Z5	X6	Y6	Z6	X7	Y7	Z7	X8	Y8	Z8	X9	Y9	Z9	X10	Y10	Z10	X11	Y11	Z11	X12	Y12	Z12	X13	Y13	Z13	X14	Y14	Z14	X15	Y15	Z15	X16	Y16	Z16	X17	Y17	Z17	X18	Y18	Z18	X19	Y19	Z19	X20	Y20	Z20	X21	Y21	Z21	X22	Y22	Z22	X23	Y23	Z23	X24	Y24	Z24	X25	Y25	Z25	X26	Y26	Z26	X27	Y27	Z27	X28	Y28	Z28	X29	Y29	Z29	X30	Y30	Z30	X31	Y31	Z31	X32	Y32	Z32	X33	Y33	Z33	X34	Y34	Z34	X35	Y35	Z35	X36	Y36	Z36	X37	Y37	Z37	X38	Y38	Z38	X39	Y39	Z39	X40	Y40	Z40	X41	Y41	Z41	X42	Y42	Z42	X43	Y43	Z43	X44	Y44	Z44	X45	Y45	Z45	X46	Y46	Z46	X47	Y47	Z47	X48	Y48	Z48	X49	Y49	Z49	X50	Y50	Z50	X51	Y51	Z51	X52	Y52	Z52	

70	0.6900000000000001	866.0744628906252	922.7180786132815	-384.517791748047	651.5419921875001	932.5928955078127	-301.1994323730469	662.1792602539064	930.1895751953127	-198.1613311767579	877.7732543945315	915.1090087890627	-135.1682281494141	781.8240966796877	814.0749511718752	-439.4692382812501	828.8530883789065	441.137176513672	-370.6197814941407	813.5249023437502	428.2566528320314	-248.7344055175782	810.939880371094	383.1178894042969	-377.3147888183594	857.8631591796877	373.1720886230469	-320.7096557617188	763.6038818359376	64.9380340576172	-331.7222900390626	777.5501098632815	71.49021148681642	-248.9250183105469	714.9122924804689	16.46200942993164	-283.5231018066407	889.295837402344	20.42723464965821	-264.0755004882813	894.4439697265627	29.96133422851563	-315.0842895507813	840.697937011719	14.22239208221436	-358.3339233398438	790.722351074219	809.800476074219	-70.65213012695314	897.7247314453127	449.3562316894532	-117.5182266235352	920.740905761719	429.1305236816407	-241.7191619873047	866.028503417969	410.9012145996095	-114.5280838012696	910.499450683594	374.1292419433594	-149.3523101806641	645.5225830078126	169.4092864990235	-149.3575592041016	688.4495239257814	152.2432098388672	-221.6751251220704	594.0535888671876	147.0510406494141	-210.4619903564454	728.6705322265626	45.69343566894532	-181.1478881835938	724.3754882812501	64.1124725341797	-142.719970703125	666.9917602539064	79.28619384765626	-104.6665649414063	770.1809082031252	1418.611938476563	-234.8894958496094	665.3739624023439	1181.911010742188	-250.5391387939454	931.2874145507815	1089.015991210938	-262.0932312011719	880.4729003906252	1336.107055664063	-250.3824310302735	662.2489013671876	1229.292236328125	-334.1019897460938	707.7360229492189	1356.782470703125	-341.3773193359376	744.9479980468751	1361.485717773438	-405.9417724609376	794.4649658203127	1370.77734375	-421.0540466308595	731.4444580078126	1066.961547851563	-502.0776672363282	712.2820434570314	1059.054809570313	-425.2756652832032	701.5973510742189	1044.430908203125	-474.2915954589845	806.447937011719	835.6561279296877	-493.069549560547	738.5928955078126	841.0650634765627	-534.2224121093751	823.707946777344	772.129821777344	-508.7521362304689	733.5208740234376	779.8764648437502	-540.2886962890626	667.2207641601564	1222.231079101563	-168.1737518310547	714.0123901367189	1344.956787109375	-162.7208557128907	769.3466796875002	1348.157348632813	-92.43040466308595	815.6280517578127	1349.34033203125	-80.5464553833008	800.0693359375002	1027.47314453125	-6.065718650817873	762.4580078125001	1016.592041015625	-68.55928802490236	773.6081542968752	996.5244750976565	-23.4128532409668	898.8282470703127	817.180847167969	-15.44229412078858	851.3372802734377	814.5480957031252	26.2375831604004	931.2695922851565	742.1671142578126	-7.701744079589846	859.898376464844	748.0959472656251	39.5008659362793	
71	0.7000000000000001	880.904479980469	923.7978515625002	-384.6978759765626	666.8565063476564	934.3430175781252	-301.8080444335938	676.9410400390626	932.367370605469	-198.956283569336	892.2735595703127	918.2377929687502	-135.4930114746094	794.9783325195315	814.674011230469	-439.3916015625001	830.749694824219	441.1426391601564	-370.9941711425782	815.1815185546877	428.2896423339845	-249.0056915283204	812.053405761719	383.3769531250001	-377.7087707519532	859.1253051757815	372.8589477539063	-321.1040344238282	763.7398681640626	65.16360473632814	-331.3922729492188	777.939636230469	71.79548645019533	-248.6829681396485	715.0628051757814	16.97863197326661	-283.0353698730469	889.4328613281252	20.12872123718262	-264.0569763183594	894.5694580078127	29.71134567260743	-315.0356140136719	840.647644042969	14.08385944366455	-358.1603393554688	806.2210083007815	812.4895019531252	-70.65782928466798	923.217468261719	453.508026123047	-118.4164047241211	946.4420166015627	434.5653076171876	-242.6644592285157	892.9487304687502	413.1109008789064	-115.4655151367188	939.0405273437502	378.5222778320313	-150.8338928222657	685.6339721679689	158.96044921875	-149.3386688232422	728.7075805664064	144.7379913330078	-221.9639892578126	634.4037475585939	133.1316070556641	-209.7928619384766	776.8942871093752	41.98418807983399	-182.0092010498047	771.9821777343752	60.5055389404297	-143.5572204589844	714.1512451171876	71.07051086425783	-104.7158432006836	785.189880371094	1419.729736328125	-235.3372650146485	680.2917480468751	1183.10009765625	-252.1637878417969	945.163024902344	1091.52294921875	-261.2008056640626	895.5588989257815	1337.3671875	-250.3116302490235	677.4662475585939	1230.59326171875	-335.5434265136719	723.2620849609376	1358.118774414063	-342.2276916503907	760.7315673828126	1363.0439453125	-406.4783020019532	810.3666992187502	1372.489135742188	-421.1665649414064	750.3584594726564	1067.849365234375	-503.5879516601564	730.3621826171876	1059.706420898438	-426.9446411132814	720.4778442382814	1044.497802734375	-476.0807495117189	831.627868652344	838.6225585937502	-493.1536865234376	763.8081665039064	841.8938598632815	-534.6328125000001	851.1008911132815	775.8728027343752	-508.9421997070314	760.7672729492189	780.5940551757815	-540.7612915039064	681.6908569335939	1223.397216796875	-169.8944549560547	728.6594848632814	1346.0166015625	-163.8585968017578	782.8528442382815	1348.93017578125	-93.50884246826173	829.1975097656252	1350.243896484375	-80.66918182373048	811.0445556640627	1028.877807617188	-6.559518337249758	773.5644531250002	1018.658447265625	-69.37402343750001	784.314392089844	998.4824829101565	-24.02671623229981	905.7266235351565	816.8643188476565	-14.00241279602051	858.070739746094	815.2945556640627	27.49129104614259	936.2153320312502	740.9103393554689	-6.07720994949341	865.029479980469	748.4915161132814	40.92113876342774	
72	0.71	895.7789306640627	924.3779296875002	-384.752899169922	682.2714233398439	935.5135498046877	-302.2322082519532	691.8599853515626	933.9370117187502	-199.4349212646485	906.8437500000002	920.6921997070315	-135.8379974365235	808.2332153320315	814.943054199219	-439.3177795410157	832.8789672851565	441.1563720703126	-371.3829956054688	817.1904296875002	428.396453857422	-249.2821044921876	813.4133300781252	383.6813354492188	-378.0994873046876	860.6311645507815	372.5575561523438	-321.5435180664063	763.9592895507814	65.44760131835939	-330.9343872070313	778.469665527344	72.18905639648439	-248.3338623046876	715.2917480468751	17.60468292236328	-282.3794250488282	889.613220214844	19.8260498046875	-264.0084533691407	894.715026855469	29.4614601135254	-314.9718627929688	840.5648193359377	14.00439071655274	-357.9269104003907	821.863708496094	814.530212402344	-70.52469635009767	947.9973144531252	457.1733703613282	-119.2982711791992	971.0086669921877	439.4598693847657	-243.7261047363282	919.3535156250002	414.7827453613282	-116.2878799438477	966.9526367187502	382.6215515136719	-152.3246307373047	727.0655517578126	148.0139465332032	-148.9449157714844	770.108093261719	136.9031524658203	-221.9344024658204	676.4626464843751	118.7341079711914	-208.7613525390626	826.0494384765627	38.53658676147462	-182.8666381835938	820.4282226562502	56.93552017211915	-144.3452758789063	762.4256591796876	62.75058746337892	-104.6388244628907	800.223571777344	1420.365966796875	-235.8210144042969	695.2381591796876	1183.770385742188	-253.7553710937501	959.3255615234377	1093.39404296875	-260.4665832519532	910.6621704101565	1338.1171875	-250.2586975097657	692.7968139648439	1231.353393554688	-337.0021057128907	738.8015136718751	1358.916625976563	-343.1209106445313	776.5924072265627	1364.010375976563	-407.0393066406251	826.289489746094	1373.629150390625	-421.3298339843751	769.1446533203127	1068.24951171875	-505.0955200195314	748.3505859375001	1059.83544921875	-428.6647949218751	739.3106079101564	1044.094848632813	-477.8643188476564	856.8112792968752	841.3854980468752	-493.1504211425782	789.0859985351565	842.4096679687502	-534.8710937500001	878.5463867187502	779.508972167969	-508.9960021972657	788.1145019531252	781.0571899414065	-540.9426879882814	696.1738891601564	1224.100341796875	-171.5740966796875	743.3018188476564	1346.626342773438	-165.0181579589844	796.3869628906252	1349.212158203125	-94.64770507812501	842.825866699219	1350.684692382813	-80.84421539306642	822.0122680664065	1029.85205078125	-6.965598583221437	784.7165527343752	1020.20166015625	-70.13710784912111	795.055603027344	999.971618652344	-24.56847572326661	912.7610473632815	816.330749511719	-12.45139503479004	864.9962158203127	815.765808105469	28.82731246948243	941.3920898437502	739.5354614257814	-4.263229846954347	870.4006958007815	748.6657104492189	42.42723464965821	
73	0.72	910.6843261718752	924.4134521484377	-384.7173156738282	697.7334594726564	936.0780029296877	-302.4642639160157	706.9225463867189	934.8416748046877	-199.6098632812501	921.513854980469	922.3823242187502	-136.1938934326172	821.588073730469	814.8883056640627	-439.2744140625001	835.312194824219	441.1554260253907	-371.7760620117188	819.624450683594	428.5452575683595	-249.5589294433594	815.0769653320315	384.0027465820314	-378.4742736816407	862.4461669921877	372.2392883300782	-322.0255126953126	764.2598266601564	65.78633880615236	-330.3387145996094	779.143737792969	72.66282653808595	-247.8692321777344	715.6055908203126	18.33151245117188	-281.5392761230469	889.8352661132815	19.54720306396485	-263.9397888183594	894.8664550781252	29.23361015319825	-314.9022521972657	840.443298339844	13.99672031402588	-357.6330871582032	837.6446533203127	815.8681640625002	-70.2902069091797	971.9689941406252	460.2665405273439	-120.1421279907227	994.337585449219	443.6585693359376	-244.8693084716797	945.182312011719	415.8864746093751	-116.9780807495117	994.1374511718752	386.3919372558595	-153.7809753417969	769.8411254882815	136.9378509521485	-148.2285461425782	812.6777343750002	129.0647125244141	-221.6167602539063	720.3177490234376	104.2412872314453	-207.4430389404297	876.066101074219	35.6895866394043	-183.6159973144532	869.6465454101565	53.74650955200197	-144.9979095458985	811.7822875976565	54.76086425781251	-104.4050598144532	815.289489746094	1420.516723632813	-236.326400756836	710.2137451171876	1183.921630859375	-255.2973022460938	973.7845458984377	1094.534912109375	-259.8866882324219	925.7866821289065	1338.34130859375	-250.2183837890626	708.2416992187501	1231.578247070313	-338.4591064453126	754.3543090820314	1359.176635742188	-344.0427856445313	792.5433349609377	1364.3759765625	-407.6148376464845	842.2424926757815	1374.1728515625	-421.5434570312501	787.8223876953127	1068.140502929688	-506.5839233398439	766.2597656250001	1059.412841796875	-430.4196777343751	758.1150512695314	1043.208862304688	-479.6247558593751	881.9585571289065	843.9262695312502	-493.0599365234376	814.395690917969	842.6023559570315	-534.9348754882814	905.9870605468752	783.0158691406252	-508.918914794922	815.5167236328127	781.2576293945315	-540.8351440429689	710.6765747070314	1224.333618164063	-173.1827087402344	757.9534301757814	1346.777221679688	-166.1709594726563	809.997009277344	1349.012817382813	-95.79692840576173	856.5500488281252	1350.652221679688	-81.0617141723633	833.0066528320315	1030.378295898438	-7.281930923461916	795.9641723632815	1021.192810058594	-70.83726501464845	805.865905761719	1000.971374511719	-25.03577232360841	919.9622802734377	815.5332641601565	-10.78436756134033	872.1348266601565	815.9287719726565	30.24901199340821	946.8417968750002	738.0020751953126	-2.23435115814209	876.0290527343752	748.5881347656251	44.0322608947754	
